<svg width="27" height="21" viewBox="0 0 27 21" fill="none" xmlns="http://www.w3.org/2000/svg">
<rect x="1" y="1" width="25" height="19.4417" rx="4" fill="white"/>
<path fill-rule="evenodd" clip-rule="evenodd" d="M0.87868 0.87868C0 1.75736 0 3.17157 0 6V14.997C0 17.8254 0 19.2396 0.87868 20.1183C1.75736 20.997 3.17157 20.997 6 20.997H21C23.8284 20.997 25.2426 20.997 26.1213 20.1183C27 19.2396 27 17.8254 27 14.997V6C27 3.17157 27 1.75736 26.1213 0.87868C25.2426 0 23.8284 0 21 0H6C3.17157 0 1.75736 0 0.87868 0.87868ZM5.72164 4.7226C5.26209 4.41628 4.64123 4.54049 4.33491 5.00004C4.02858 5.45959 4.1528 6.08045 4.61235 6.38677L12.391 11.5718C13.0628 12.0196 13.9379 12.0196 14.6096 11.5718L22.3883 6.38677C22.8479 6.08045 22.9721 5.45959 22.6657 5.00004C22.3594 4.54049 21.7386 4.41628 21.279 4.7226L13.5003 9.90765L5.72164 4.7226Z" fill="#DA0037"/>
</svg>
