<svg width="25" height="20" viewBox="0 0 25 20" fill="none" xmlns="http://www.w3.org/2000/svg">
<rect y="0.279053" width="25" height="19.4417" rx="4" fill="#DA0037"/>
<path fill-rule="evenodd" clip-rule="evenodd" d="M0.87868 1.15773C0 2.03641 0 3.45063 0 6.27906V13.7207C0 16.5491 0 17.9634 0.87868 18.842C1.75736 19.7207 3.17157 19.7207 6 19.7207H19C21.8284 19.7207 23.2426 19.7207 24.1213 18.842C25 17.9634 25 16.5491 25 13.7207V6.27905C25 3.45063 25 2.03641 24.1213 1.15773C23.2426 0.279053 21.8284 0.279053 19 0.279053H6C3.17157 0.279053 1.75736 0.279053 0.87868 1.15773ZM4.72131 5.00159C4.26176 4.69527 3.6409 4.81948 3.33458 5.27903C3.02826 5.73858 3.15247 6.35944 3.61202 6.66577L11.3907 11.8508C12.0625 12.2986 12.9375 12.2986 13.6093 11.8508L21.388 6.66577C21.8475 6.35944 21.9717 5.73858 21.6654 5.27903C21.3591 4.81948 20.7382 4.69527 20.2787 5.00159L12.5 10.1866L4.72131 5.00159Z" fill="white"/>
</svg>
