<svg width="24" height="25" viewBox="0 0 24 25" fill="none" xmlns="http://www.w3.org/2000/svg">
<path fill-rule="evenodd" clip-rule="evenodd" d="M12.3767 24.9039C14.3454 23.9161 22.9586 19.1285 22.9586 10.9793C22.9586 4.91561 18.043 0 11.9793 0C5.91561 0 1 4.91561 1 10.9793C1 19.1285 9.61321 23.9161 11.5819 24.9039C11.8365 25.0317 12.1221 25.0317 12.3767 24.9039ZM11.979 15.6849C14.5778 15.6849 16.6845 13.5782 16.6845 10.9795C16.6845 8.38078 14.5778 6.27409 11.979 6.27409C9.38029 6.27409 7.2736 8.38078 7.2736 10.9795C7.2736 13.5782 9.38029 15.6849 11.979 15.6849Z" fill="#DA0037"/>
<circle cx="11.9789" cy="10.9794" r="4.70542" fill="white"/>
</svg>
