<svg width="25" height="25" viewBox="0 0 25 25" fill="none" xmlns="http://www.w3.org/2000/svg">
<path d="M5.6875 0C4.75552 0 4 0.763151 4 1.70455V23.2955C4 24.2368 4.75552 25 5.6875 25H20.3125C21.2445 25 22 24.2368 22 23.2955V6.81818L15.25 0H5.6875Z" fill="#20A464"/>
<path d="M5.6875 25C4.75552 25 4 24.2325 4 23.2857V23C4 23.9468 4.75552 24.7143 5.6875 24.7143H20.3125C21.2445 24.7143 22 23.9468 22 23V23.2857C22 24.2325 21.2445 25 20.3125 25H5.6875Z" fill="#149456"/>
<path d="M5.60976 0C4.72071 0 4 0.767512 4 1.71429V2C4 1.05323 4.72071 0.285714 5.60976 0.285714H15L14.7317 0H5.60976Z" fill="#38AE74"/>
<path d="M22 12V6.875L21.0403 6H16.4121C16.0457 6 15.8622 6.40393 16.1213 6.64017L22 12Z" fill="url(#paint0_linear_9_93013)"/>
<path d="M15 0L22 7H16.75C15.7835 7 15 6.2165 15 5.25V0Z" fill="#8ED1B1"/>
<path fill-rule="evenodd" clip-rule="evenodd" d="M18 12V20H9V12H18ZM12.9375 13.1034H10.125V14.4828H12.9375V13.1034ZM14.0625 14.4828V13.1034H16.875V14.4828H14.0625ZM12.9375 15.3103H10.125V16.6897H12.9375V15.3103ZM14.0625 16.6897V15.3103H16.875V16.6897H14.0625ZM12.9375 17.5172H10.125V18.8966H12.9375V17.5172ZM14.0625 18.8966V17.5172H16.875V18.8966H14.0625Z" fill="white"/>
<defs>
<linearGradient id="paint0_linear_9_93013" x1="19" y1="12" x2="19" y2="5.875" gradientUnits="userSpaceOnUse">
<stop stop-color="#20A464"/>
<stop offset="1" stop-color="#207E55"/>
</linearGradient>
</defs>
</svg>
