<svg width="25" height="25" viewBox="0 0 25 25" fill="none" xmlns="http://www.w3.org/2000/svg">
<g clip-path="url(#clip0_49_21280)">
<rect width="25" height="25" rx="5" fill="white"/>
<path d="M9.45313 14.375C9.45313 15.1563 10.3906 16.25 12.5 16.25C14.4531 16.25 15.4688 15.3125 15.4688 13.8281C15.4688 13.0469 15.0782 12.1094 13.5938 11.7969L12.1875 11.4844C11.7188 11.4062 11.0938 11.1719 11.0938 10.7031C11.0938 10.2344 11.4844 9.84375 12.2657 9.84375C13.1809 9.84375 13.5065 10.2191 13.7761 10.53C13.9668 10.7498 14.1295 10.9375 14.4531 10.9375C14.9219 10.9375 15.2344 10.7031 15.2344 10.3125C15.2344 9.375 13.6719 8.67187 12.4219 8.67187C11.0157 8.67187 9.53128 9.21875 9.53128 10.8594C9.53128 11.5625 9.76566 12.4219 11.25 12.8125L13.125 13.2812C13.6719 13.4375 13.8282 13.75 13.8282 14.0625C13.8282 14.5312 13.3594 15.0781 12.5 15.0781C11.4932 15.0781 11.1566 14.6224 10.8777 14.2448C10.6805 13.9779 10.5122 13.75 10.1563 13.75C10 13.75 9.84379 13.75 9.68754 13.9062C9.53128 13.9844 9.45313 14.2188 9.45313 14.375Z" fill="#DA0037"/>
<path fill-rule="evenodd" clip-rule="evenodd" d="M0 3.90625C0 1.74889 1.74889 0 3.90625 0H21.0938C23.2511 0 25 1.74889 25 3.90625V21.0938C25 23.2511 23.2511 25 21.0938 25H3.90625C1.74889 25 0 23.2511 0 21.0938V3.90625ZM18.3594 12.5001C18.3594 12.8126 18.3594 13.2032 18.2813 13.5156C18.9063 14.6094 18.8281 15.9375 18.2031 17.1094C17.5781 18.2031 16.4063 18.9063 15.1563 18.9063C14.5313 18.9063 13.9844 18.75 13.4375 18.4375C11.5625 18.75 9.60938 18.125 8.28125 16.7969C6.875 15.3906 6.32814 13.4375 6.64064 11.5625C6.01565 10.4688 6.01565 9.14063 6.64064 8.04687C7.26565 6.95313 8.43754 6.25 9.68754 6.25C10.3125 6.25 10.9375 6.40625 11.4063 6.64062C13.125 6.40625 14.9219 6.79688 16.25 7.96875C17.5781 9.14063 18.3594 10.7814 18.3594 12.5001Z" fill="#DA0037"/>
</g>
<defs>
<clipPath id="clip0_49_21280">
<rect width="25" height="25" rx="5" fill="white"/>
</clipPath>
</defs>
</svg>
