<svg width="25" height="25" viewBox="0 0 25 25" fill="none" xmlns="http://www.w3.org/2000/svg">
<path d="M6.70753 15.244C6.70753 16.5928 5.48109 17.683 3.96363 17.683C2.44617 17.683 1.21973 16.5928 1.21973 15.244C1.21973 13.8951 2.44617 12.8049 3.96363 12.8049H6.70753V15.244Z" fill="#E01E5A"/>
<path d="M7.31738 15.244C7.31738 13.8951 8.40755 12.8049 9.75641 12.8049C11.1053 12.8049 12.1954 13.8951 12.1954 15.244V21.3415C12.1954 22.6904 11.1053 23.7805 9.75641 23.7805C8.40755 23.7805 7.31738 22.6904 7.31738 21.3415V15.244Z" fill="#E01E5A"/>
<path d="M9.75641 5.48791C8.40755 5.48791 7.31738 4.39774 7.31738 3.04889C7.31738 1.70003 8.40755 0.609863 9.75641 0.609863C11.1053 0.609863 12.1954 1.70003 12.1954 3.04889V5.48791H9.75641Z" fill="#36C5F0"/>
<path d="M9.76041 6.70728C11.107 6.70728 12.1953 7.79745 12.1953 9.1463C12.1953 10.4952 11.107 11.5853 9.76041 11.5853H3.65465C2.30806 11.5853 1.21973 10.4952 1.21973 9.1463C1.21973 7.79745 2.30806 6.70728 3.65465 6.70728H9.76041Z" fill="#36C5F0"/>
<path d="M19.5117 9.1463C19.5117 7.79745 20.6019 6.70728 21.9507 6.70728C23.2996 6.70728 24.3898 7.79745 24.3898 9.1463C24.3898 10.4952 23.2996 11.5853 21.9507 11.5853H19.5117V9.1463Z" fill="#2EB67D"/>
<path d="M18.2931 9.15055C18.2931 10.4971 17.2029 11.5855 15.8541 11.5855C14.5052 11.5855 13.415 10.4971 13.415 9.15055V3.04479C13.415 1.6982 14.5052 0.609863 15.8541 0.609863C17.2029 0.609863 18.2931 1.6982 18.2931 3.04479V9.15055Z" fill="#2EB67D"/>
<path d="M15.8541 18.2927C17.2029 18.2927 18.2931 19.5192 18.2931 21.0366C18.2931 22.5541 17.2029 23.7805 15.8541 23.7805C14.5052 23.7805 13.415 22.5541 13.415 21.0366V18.2927H15.8541Z" fill="#ECB22E"/>
<path d="M15.85 17.683C14.5034 17.683 13.415 16.5928 13.415 15.244C13.415 13.8951 14.5034 12.8049 15.85 12.8049H21.9557C23.3023 12.8049 24.3906 13.8951 24.3906 15.244C24.3906 16.5928 23.3023 17.683 21.9557 17.683H15.85Z" fill="#ECB22E"/>
</svg>
